<svg xmlns="http://www.w3.org/2000/svg" viewBox="0 0 512 512" role="img" aria-label="울산 예약">
  <rect width="512" height="512" rx="96" fill="#0b1220"/>
  <path d="M96 328c50-86 92-129 126-129 24 0 39 18 55 37 18 22 37 45 73 45 26 0 49-13 66-28v83c-21 13-44 20-69 20-59 0-91-38-112-64-8-10-16-19-22-19-13 0-42 25-83 96H96v-41Z" fill="#22c55e"/>
  <circle cx="360" cy="150" r="54" fill="#38bdf8"/>
  <path d="M106 379h300" stroke="#e7eefc" stroke-width="28" stroke-linecap="round"/>
  <path d="M152 128h116" stroke="#e7eefc" stroke-width="30" stroke-linecap="round"/>
  <path d="M152 182h76" stroke="#a8b3c7" stroke-width="24" stroke-linecap="round"/>
</svg>
